# xmcd
#
# Track frame offsets:
#	150
#	6607
#	11672
#	17720
#	22265
#	30112
#	36262
#	41427
#	45690
#	54877
#	61805
#	66260
#	69565
#	75402
#	80237
#	84637
#	87920
#	94160
#	98695
#	105107
#	110170
#	119717
#	127210
#	130472
#	133312
#	137675
#	141522
#	149127
#	155225
#	163180
#	168997
#	171827
#
# Disc length: 2319 seconds
#
# Revision: 1
# Processed by: cddbd v1.5.1PL0 Copyright (c) Steve Scherf et al.
# Submitted via: audiograbber 1.83.01
#
DISCID=d5090d20
DTITLE=Steve Kaufman - Championship Flatpicking Guitar
DYEAR=1900
DGENRE=Bluegrass
TTITLE0=Amazing Grace - slow
TTITLE1=Amazing Grace - fast
TTITLE2=Banks of the Ohio - slow
TTITLE3=Banks of the Ohio - fast
TTITLE4=Beaumont Rag - slow
TTITLE5=Beaumont Rag - fast
TTITLE6=Black Mountain Rag - slow
TTITLE7=Black Mountain Rag - fast
TTITLE8=Calgary Polka - slow
TTITLE9=Calgary Polka - fast
TTITLE10=Cattle In the Cane - slow
TTITLE11=Cattle In the Cane - fast
TTITLE12=Dill Pickle Rag - slow
TTITLE13=Dill Pickle Rag - fast
TTITLE14=Dixie Breakdown - slow
TTITLE15=Dixie Breakdown - fast
TTITLE16=Dusty Miller Hornpipe - slow
TTITLE17=Dusty Miller Hornpipe - fast
TTITLE18=Farewell Blues - slow
TTITLE19=Farewell Blues - fast
TTITLE20=Grey Eagle Hornpipe - slow
TTITLE21=Grey Eagle Hornpipe - fast
TTITLE22=Little Sadie - slow
TTITLE23=Little Sadie - fast
TTITLE24=Rickett's Hornpipe - slow
TTITLE25=Rickett's Hornpipe - fast
TTITLE26=Sally Goodin' - slow
TTITLE27=Sally Goodin' - fast
TTITLE28=Stoney Point - slow
TTITLE29=Stoney Point - fast
TTITLE30=Yonder Stands Little Maggie - slow
TTITLE31=Yonder Stands Little Maggie - fast
EXTD=
EXTT0=
EXTT1=
EXTT2=
EXTT3=
EXTT4=
EXTT5=
EXTT6=
EXTT7=
EXTT8=
EXTT9=
EXTT10=
EXTT11=
EXTT12=
EXTT13=
EXTT14=
EXTT15=
EXTT16=
EXTT17=
EXTT18=
EXTT19=
EXTT20=
EXTT21=
EXTT22=
EXTT23=
EXTT24=
EXTT25=
EXTT26=
EXTT27=
EXTT28=
EXTT29=
EXTT30=
EXTT31=
PLAYORDER=
